<svg xmlns="http://www.w3.org/2000/svg" xmlns:xlink="http://www.w3.org/1999/xlink" width="500" zoomAndPan="magnify" viewBox="0 0 375 374.999991" height="500" preserveAspectRatio="xMidYMid meet" version="1.0"><defs><g/></defs><rect x="-37.5" width="450" fill="#ffffff" y="-37.499999" height="449.999989" fill-opacity="1"/><rect x="-37.5" width="450" fill="#09090b" y="-37.499999" height="449.999989" fill-opacity="1"/><g fill="#ffffff" fill-opacity="1"><g transform="translate(35.47876, 256.128518)"><g><path d="M 72.859375 0 C 65.960938 1.289062 59.195312 1.859375 52.5625 1.703125 C 45.9375 1.554688 40.019531 0.390625 34.8125 -1.796875 C 29.601562 -3.984375 25.644531 -7.515625 22.9375 -12.390625 C 20.46875 -16.953125 19.171875 -21.585938 19.046875 -26.296875 C 18.921875 -31.015625 18.859375 -36.363281 18.859375 -42.34375 L 18.859375 -127.609375 L 44.015625 -127.609375 L 44.015625 -43.828125 C 44.015625 -39.941406 44.0625 -36.441406 44.15625 -33.328125 C 44.25 -30.222656 44.878906 -27.742188 46.046875 -25.890625 C 48.265625 -22.378906 51.804688 -20.46875 56.671875 -20.15625 C 61.546875 -19.851562 66.941406 -20.097656 72.859375 -20.890625 Z M 1.84375 -80.453125 L 1.84375 -99.859375 L 72.859375 -99.859375 L 72.859375 -80.453125 Z M 1.84375 -80.453125 "/></g></g></g><g fill="#ffffff" fill-opacity="1"><g transform="translate(117.59014, 256.128518)"><g><path d="M 14.796875 -113.734375 L 14.796875 -135.921875 L 39.953125 -135.921875 L 39.953125 -113.734375 Z M 14.796875 0 L 14.796875 -99.859375 L 39.953125 -99.859375 L 39.953125 0 Z M 14.796875 0 "/></g></g></g><g fill="#ffffff" fill-opacity="1"><g transform="translate(172.33106, 256.128518)"><g><path d="M 14.796875 0 L 14.796875 -135.921875 L 39.953125 -135.921875 L 39.953125 0 Z M 14.796875 0 "/></g></g></g><g fill="#ffffff" fill-opacity="1"><g transform="translate(227.07198, 256.128518)"><g><path d="M 59.359375 2.78125 C 49.128906 2.78125 40.113281 0.578125 32.3125 -3.828125 C 24.519531 -8.242188 18.414062 -14.316406 14 -22.046875 C 9.59375 -29.785156 7.390625 -38.648438 7.390625 -48.640625 C 7.390625 -59.546875 9.546875 -69.035156 13.859375 -77.109375 C 18.179688 -85.191406 24.132812 -91.46875 31.71875 -95.9375 C 39.300781 -100.40625 48.023438 -102.640625 57.890625 -102.640625 C 68.367188 -102.640625 77.273438 -100.171875 84.609375 -95.234375 C 91.941406 -90.304688 97.363281 -83.375 100.875 -74.4375 C 104.394531 -65.5 105.628906 -54.988281 104.578125 -42.90625 L 79.703125 -42.90625 L 79.703125 -52.15625 C 79.703125 -62.320312 78.082031 -69.640625 74.84375 -74.109375 C 71.613281 -78.578125 66.332031 -80.8125 59 -80.8125 C 50.425781 -80.8125 44.117188 -78.207031 40.078125 -73 C 36.046875 -67.789062 34.03125 -60.101562 34.03125 -49.9375 C 34.03125 -40.625 36.046875 -33.425781 40.078125 -28.34375 C 44.117188 -23.257812 50.054688 -20.71875 57.890625 -20.71875 C 62.816406 -20.71875 67.035156 -21.796875 70.546875 -23.953125 C 74.066406 -26.109375 76.75 -29.21875 78.59375 -33.28125 L 103.75 -26.078125 C 99.988281 -16.953125 94.054688 -9.859375 85.953125 -4.796875 C 77.847656 0.253906 68.984375 2.78125 59.359375 2.78125 Z M 26.265625 -42.90625 L 26.265625 -61.578125 L 92.46875 -61.578125 L 92.46875 -42.90625 Z M 26.265625 -42.90625 "/></g></g></g></svg>