<svg xmlns="http://www.w3.org/2000/svg" xmlns:xlink="http://www.w3.org/1999/xlink" width="500" zoomAndPan="magnify" viewBox="0 0 375 374.999991" height="500" preserveAspectRatio="xMidYMid meet" version="1.0"><defs><g/></defs><rect x="-37.5" width="450" fill="#ffffff" y="-37.499999" height="449.999989" fill-opacity="1"/><rect x="-37.5" width="450" fill="#09090b" y="-37.499999" height="449.999989" fill-opacity="1"/><g fill="#ffffff" fill-opacity="1"><g transform="translate(42.559319, 247.607666)"><g><path d="M 54.5 33.984375 C 47.601562 33.984375 42.140625 31.976562 38.109375 27.96875 C 34.078125 23.957031 32.0625 18.484375 32.0625 11.546875 L 32.0625 -36.625 C 32.0625 -37.800781 31.738281 -38.816406 31.09375 -39.671875 L 23.96875 -49.765625 C 22.945312 -51.316406 22.4375 -53.023438 22.4375 -54.890625 C 22.4375 -56.765625 22.945312 -58.476562 23.96875 -60.03125 L 31.09375 -70.125 C 31.738281 -71.1875 32.0625 -72.203125 32.0625 -73.171875 L 32.0625 -121.328125 C 32.0625 -128.222656 34.078125 -133.6875 38.109375 -137.71875 C 42.140625 -141.75 47.601562 -143.765625 54.5 -143.765625 L 65.390625 -143.765625 L 65.390625 -125.578125 L 55.859375 -125.578125 C 54.304688 -125.578125 52.984375 -125.03125 51.890625 -123.9375 C 50.796875 -122.84375 50.25 -121.519531 50.25 -119.96875 L 50.25 -73.171875 C 50.25 -68.203125 48.804688 -63.660156 45.921875 -59.546875 L 42.46875 -54.890625 L 45.921875 -50.25 C 48.804688 -46.082031 50.25 -41.539062 50.25 -36.625 L 50.25 10.265625 C 50.25 11.804688 50.796875 13.125 51.890625 14.21875 C 52.984375 15.320312 54.304688 15.875 55.859375 15.875 L 65.390625 15.875 L 65.390625 33.984375 Z M 54.5 33.984375 "/></g></g></g><g fill="#ffffff" fill-opacity="1"><g transform="translate(114.52839, 247.607666)"><g><path d="M 14.421875 0 L 14.421875 -19.796875 L 34.21875 -19.796875 L 34.21875 0 Z M 14.421875 0 "/></g></g></g><g fill="#ffffff" fill-opacity="1"><g transform="translate(163.17565, 247.607666)"><g><path d="M 14.421875 0 L 14.421875 -19.796875 L 34.21875 -19.796875 L 34.21875 0 Z M 14.421875 0 "/></g></g></g><g fill="#ffffff" fill-opacity="1"><g transform="translate(211.82291, 247.607666)"><g><path d="M 14.421875 0 L 14.421875 -19.796875 L 34.21875 -19.796875 L 34.21875 0 Z M 14.421875 0 "/></g></g></g><g fill="#ffffff" fill-opacity="1"><g transform="translate(260.470171, 247.607666)"><g><path d="M 17.46875 33.984375 L 6.578125 33.984375 L 6.578125 15.875 L 16.109375 15.875 C 17.660156 15.875 18.984375 15.320312 20.078125 14.21875 C 21.171875 13.125 21.71875 11.804688 21.71875 10.265625 L 21.71875 -36.625 C 21.71875 -41.539062 23.160156 -46.082031 26.046875 -50.25 L 29.484375 -54.890625 L 26.046875 -59.546875 C 23.160156 -63.660156 21.71875 -68.203125 21.71875 -73.171875 L 21.71875 -119.96875 C 21.71875 -121.519531 21.171875 -122.84375 20.078125 -123.9375 C 18.984375 -125.03125 17.660156 -125.578125 16.109375 -125.578125 L 6.578125 -125.578125 L 6.578125 -143.765625 L 17.46875 -143.765625 C 24.363281 -143.765625 29.828125 -141.75 33.859375 -137.71875 C 37.890625 -133.6875 39.90625 -128.222656 39.90625 -121.328125 L 39.90625 -73.171875 C 39.90625 -72.203125 40.226562 -71.1875 40.875 -70.125 L 48 -60.03125 C 49.070312 -58.476562 49.609375 -56.765625 49.609375 -54.890625 C 49.609375 -53.023438 49.070312 -51.316406 48 -49.765625 L 40.875 -39.671875 C 40.226562 -38.816406 39.90625 -37.800781 39.90625 -36.625 L 39.90625 11.546875 C 39.90625 18.484375 37.890625 23.957031 33.859375 27.96875 C 29.828125 31.976562 24.363281 33.984375 17.46875 33.984375 Z M 17.46875 33.984375 "/></g></g></g></svg>