<svg xmlns="http://www.w3.org/2000/svg" xmlns:xlink="http://www.w3.org/1999/xlink" width="500" zoomAndPan="magnify" viewBox="0 0 375 374.999991" height="500" preserveAspectRatio="xMidYMid meet" version="1.0"><defs><g/></defs><rect x="-37.5" width="450" fill="#ffffff" y="-37.499999" height="449.999989" fill-opacity="1"/><rect x="-37.5" width="450" fill="#09090b" y="-37.499999" height="449.999989" fill-opacity="1"/><g fill="#ffffff" fill-opacity="1"><g transform="translate(49.473635, 214.499986)"><g><path d="M 21.921875 1.078125 C 17.910156 1.078125 14.488281 0.1875 11.65625 -1.59375 C 8.832031 -3.382812 6.671875 -5.828125 5.171875 -8.921875 C 3.671875 -12.023438 2.90625 -15.53125 2.875 -19.4375 C 2.90625 -23.425781 3.691406 -26.960938 5.234375 -30.046875 C 6.785156 -33.128906 8.988281 -35.550781 11.84375 -37.3125 C 14.695312 -39.070312 18.09375 -39.953125 22.03125 -39.953125 C 26.445312 -39.953125 30.1875 -38.84375 33.25 -36.625 C 36.3125 -34.40625 38.304688 -31.378906 39.234375 -27.546875 L 30.59375 -25.203125 C 29.925781 -27.285156 28.8125 -28.910156 27.25 -30.078125 C 25.6875 -31.242188 23.910156 -31.828125 21.921875 -31.828125 C 19.671875 -31.828125 17.8125 -31.289062 16.34375 -30.21875 C 14.875 -29.15625 13.789062 -27.6875 13.09375 -25.8125 C 12.40625 -23.9375 12.0625 -21.8125 12.0625 -19.4375 C 12.0625 -15.738281 12.890625 -12.75 14.546875 -10.46875 C 16.203125 -8.195312 18.660156 -7.0625 21.921875 -7.0625 C 24.222656 -7.0625 26.039062 -7.585938 27.375 -8.640625 C 28.707031 -9.691406 29.710938 -11.21875 30.390625 -13.21875 L 39.234375 -11.234375 C 38.035156 -7.273438 35.9375 -4.234375 32.9375 -2.109375 C 29.9375 0.015625 26.265625 1.078125 21.921875 1.078125 Z M 21.921875 1.078125 "/></g></g></g><g fill="#ffffff" fill-opacity="1"><g transform="translate(90.909713, 214.499986)"><g><path d="M 19.625 1.109375 C 16.738281 1.109375 14.359375 0.628906 12.484375 -0.328125 C 10.617188 -1.285156 9.132812 -2.507812 8.03125 -4 C 6.925781 -5.488281 6.109375 -7.070312 5.578125 -8.75 C 5.046875 -10.425781 4.703125 -12.015625 4.546875 -13.515625 C 4.390625 -15.015625 4.3125 -16.234375 4.3125 -17.171875 L 4.3125 -38.875 L 13.109375 -38.875 L 13.109375 -20.15625 C 13.109375 -18.957031 13.191406 -17.609375 13.359375 -16.109375 C 13.523438 -14.609375 13.910156 -13.164062 14.515625 -11.78125 C 15.128906 -10.40625 16.039062 -9.273438 17.25 -8.390625 C 18.46875 -7.503906 20.109375 -7.0625 22.171875 -7.0625 C 23.273438 -7.0625 24.367188 -7.238281 25.453125 -7.59375 C 26.535156 -7.957031 27.515625 -8.578125 28.390625 -9.453125 C 29.265625 -10.328125 29.960938 -11.53125 30.484375 -13.0625 C 31.015625 -14.601562 31.28125 -16.550781 31.28125 -18.90625 L 36.4375 -16.703125 C 36.4375 -13.390625 35.789062 -10.390625 34.5 -7.703125 C 33.21875 -5.015625 31.328125 -2.875 28.828125 -1.28125 C 26.335938 0.3125 23.269531 1.109375 19.625 1.109375 Z M 32.328125 0 L 32.328125 -12.0625 L 31.28125 -12.0625 L 31.28125 -38.875 L 40 -38.875 L 40 0 Z M 32.328125 0 "/></g></g></g><g fill="#ffffff" fill-opacity="1"><g transform="translate(135.945805, 214.499986)"><g><path d="M 5.046875 0 L 5.046875 -38.875 L 12.703125 -38.875 L 12.703125 -29.40625 L 11.765625 -30.640625 C 12.242188 -31.929688 12.882812 -33.109375 13.6875 -34.171875 C 14.5 -35.242188 15.46875 -36.128906 16.59375 -36.828125 C 17.550781 -37.472656 18.613281 -37.984375 19.78125 -38.359375 C 20.945312 -38.734375 22.140625 -38.960938 23.359375 -39.046875 C 24.585938 -39.128906 25.773438 -39.070312 26.921875 -38.875 L 26.921875 -30.78125 C 25.773438 -31.113281 24.453125 -31.21875 22.953125 -31.09375 C 21.453125 -30.976562 20.101562 -30.5625 18.90625 -29.84375 C 17.695312 -29.195312 16.710938 -28.367188 15.953125 -27.359375 C 15.203125 -26.347656 14.644531 -25.203125 14.28125 -23.921875 C 13.925781 -22.640625 13.75 -21.253906 13.75 -19.765625 L 13.75 0 Z M 5.046875 0 "/></g></g></g><g fill="#ffffff" fill-opacity="1"><g transform="translate(164.673861, 214.499986)"><g><path d="M 5.765625 0 L 5.765625 -52.921875 L 14.4375 -52.921875 L 14.4375 0 Z M 5.765625 0 "/></g></g></g><g fill="#ffffff" fill-opacity="1"><g transform="translate(184.8699, 214.499986)"><g><path d="M 6.484375 0 L 6.484375 -8.890625 L 15.375 -8.890625 L 15.375 0 Z M 6.484375 0 "/></g></g></g><g fill="#ffffff" fill-opacity="1"><g transform="translate(206.721946, 214.499986)"><g><path d="M 5.046875 0 L 5.046875 -38.875 L 12.703125 -38.875 L 12.703125 -29.40625 L 11.765625 -30.640625 C 12.242188 -31.929688 12.882812 -33.109375 13.6875 -34.171875 C 14.5 -35.242188 15.46875 -36.128906 16.59375 -36.828125 C 17.550781 -37.472656 18.613281 -37.984375 19.78125 -38.359375 C 20.945312 -38.734375 22.140625 -38.960938 23.359375 -39.046875 C 24.585938 -39.128906 25.773438 -39.070312 26.921875 -38.875 L 26.921875 -30.78125 C 25.773438 -31.113281 24.453125 -31.21875 22.953125 -31.09375 C 21.453125 -30.976562 20.101562 -30.5625 18.90625 -29.84375 C 17.695312 -29.195312 16.710938 -28.367188 15.953125 -27.359375 C 15.203125 -26.347656 14.644531 -25.203125 14.28125 -23.921875 C 13.925781 -22.640625 13.75 -21.253906 13.75 -19.765625 L 13.75 0 Z M 5.046875 0 "/></g></g></g><g fill="#ffffff" fill-opacity="1"><g transform="translate(235.450002, 214.499986)"><g><path d="M 19.625 1.109375 C 16.738281 1.109375 14.359375 0.628906 12.484375 -0.328125 C 10.617188 -1.285156 9.132812 -2.507812 8.03125 -4 C 6.925781 -5.488281 6.109375 -7.070312 5.578125 -8.75 C 5.046875 -10.425781 4.703125 -12.015625 4.546875 -13.515625 C 4.390625 -15.015625 4.3125 -16.234375 4.3125 -17.171875 L 4.3125 -38.875 L 13.109375 -38.875 L 13.109375 -20.15625 C 13.109375 -18.957031 13.191406 -17.609375 13.359375 -16.109375 C 13.523438 -14.609375 13.910156 -13.164062 14.515625 -11.78125 C 15.128906 -10.40625 16.039062 -9.273438 17.25 -8.390625 C 18.46875 -7.503906 20.109375 -7.0625 22.171875 -7.0625 C 23.273438 -7.0625 24.367188 -7.238281 25.453125 -7.59375 C 26.535156 -7.957031 27.515625 -8.578125 28.390625 -9.453125 C 29.265625 -10.328125 29.960938 -11.53125 30.484375 -13.0625 C 31.015625 -14.601562 31.28125 -16.550781 31.28125 -18.90625 L 36.4375 -16.703125 C 36.4375 -13.390625 35.789062 -10.390625 34.5 -7.703125 C 33.21875 -5.015625 31.328125 -2.875 28.828125 -1.28125 C 26.335938 0.3125 23.269531 1.109375 19.625 1.109375 Z M 32.328125 0 L 32.328125 -12.0625 L 31.28125 -12.0625 L 31.28125 -38.875 L 40 -38.875 L 40 0 Z M 32.328125 0 "/></g></g></g><g fill="#ffffff" fill-opacity="1"><g transform="translate(280.486094, 214.499986)"><g><path d="M 31.9375 0 L 31.9375 -18.71875 C 31.9375 -19.945312 31.847656 -21.300781 31.671875 -22.78125 C 31.503906 -24.269531 31.113281 -25.703125 30.5 -27.078125 C 29.894531 -28.460938 28.984375 -29.597656 27.765625 -30.484375 C 26.554688 -31.378906 24.921875 -31.828125 22.859375 -31.828125 C 21.753906 -31.828125 20.660156 -31.644531 19.578125 -31.28125 C 18.503906 -30.925781 17.53125 -30.304688 16.65625 -29.421875 C 15.78125 -28.546875 15.078125 -27.347656 14.546875 -25.828125 C 14.015625 -24.304688 13.75 -22.359375 13.75 -19.984375 L 8.609375 -22.171875 C 8.609375 -25.484375 9.25 -28.484375 10.53125 -31.171875 C 11.8125 -33.859375 13.695312 -36 16.1875 -37.59375 C 18.6875 -39.195312 21.765625 -40 25.421875 -40 C 28.296875 -40 30.671875 -39.515625 32.546875 -38.546875 C 34.421875 -37.585938 35.90625 -36.363281 37 -34.875 C 38.101562 -33.394531 38.921875 -31.8125 39.453125 -30.125 C 39.984375 -28.445312 40.328125 -26.859375 40.484375 -25.359375 C 40.640625 -23.859375 40.71875 -22.640625 40.71875 -21.703125 L 40.71875 0 Z M 4.96875 0 L 4.96875 -38.875 L 12.703125 -38.875 L 12.703125 -26.8125 L 13.75 -26.8125 L 13.75 0 Z M 4.96875 0 "/></g></g></g></svg>