<svg xmlns="http://www.w3.org/2000/svg" xmlns:xlink="http://www.w3.org/1999/xlink" width="500" zoomAndPan="magnify" viewBox="0 0 375 374.999991" height="500" preserveAspectRatio="xMidYMid meet" version="1.0"><defs><g/></defs><rect x="-37.5" width="450" fill="#ffffff" y="-37.499999" height="449.999989" fill-opacity="1"/><rect x="-37.5" width="450" fill="#09090b" y="-37.499999" height="449.999989" fill-opacity="1"/><g fill="#ffffff" fill-opacity="1"><g transform="translate(64.643554, 214.499986)"><g><path d="M 28.375 0 C 25.6875 0.5 23.050781 0.71875 20.46875 0.65625 C 17.882812 0.601562 15.578125 0.148438 13.546875 -0.703125 C 11.523438 -1.554688 9.984375 -2.929688 8.921875 -4.828125 C 7.960938 -6.597656 7.457031 -8.398438 7.40625 -10.234375 C 7.363281 -12.078125 7.34375 -14.160156 7.34375 -16.484375 L 7.34375 -49.6875 L 17.140625 -49.6875 L 17.140625 -17.0625 C 17.140625 -15.550781 17.15625 -14.1875 17.1875 -12.96875 C 17.226562 -11.757812 17.472656 -10.796875 17.921875 -10.078125 C 18.785156 -8.710938 20.164062 -7.96875 22.0625 -7.84375 C 23.957031 -7.726562 26.0625 -7.828125 28.375 -8.140625 Z M 0.71875 -31.3125 L 0.71875 -38.875 L 28.375 -38.875 L 28.375 -31.3125 Z M 0.71875 -31.3125 "/></g></g></g><g fill="#ffffff" fill-opacity="1"><g transform="translate(96.611615, 214.499986)"><g><path d="M 5.765625 -44.28125 L 5.765625 -52.921875 L 15.546875 -52.921875 L 15.546875 -44.28125 Z M 5.765625 0 L 5.765625 -38.875 L 15.546875 -38.875 L 15.546875 0 Z M 5.765625 0 "/></g></g></g><g fill="#ffffff" fill-opacity="1"><g transform="translate(117.923659, 214.499986)"><g><path d="M 5.765625 0 L 5.765625 -52.921875 L 15.546875 -52.921875 L 15.546875 0 Z M 5.765625 0 "/></g></g></g><g fill="#ffffff" fill-opacity="1"><g transform="translate(139.235703, 214.499986)"><g><path d="M 23.109375 1.078125 C 19.128906 1.078125 15.617188 0.222656 12.578125 -1.484375 C 9.546875 -3.203125 7.171875 -5.566406 5.453125 -8.578125 C 3.734375 -11.597656 2.875 -15.050781 2.875 -18.9375 C 2.875 -23.1875 3.710938 -26.878906 5.390625 -30.015625 C 7.078125 -33.160156 9.394531 -35.601562 12.34375 -37.34375 C 15.300781 -39.082031 18.695312 -39.953125 22.53125 -39.953125 C 26.613281 -39.953125 30.082031 -38.992188 32.9375 -37.078125 C 35.789062 -35.160156 37.898438 -32.460938 39.265625 -28.984375 C 40.640625 -25.503906 41.125 -21.410156 40.71875 -16.703125 L 31.03125 -16.703125 L 31.03125 -20.296875 C 31.03125 -24.265625 30.398438 -27.117188 29.140625 -28.859375 C 27.878906 -30.597656 25.820312 -31.46875 22.96875 -31.46875 C 19.632812 -31.46875 17.179688 -30.453125 15.609375 -28.421875 C 14.035156 -26.390625 13.25 -23.394531 13.25 -19.4375 C 13.25 -15.8125 14.035156 -13.007812 15.609375 -11.03125 C 17.179688 -9.050781 19.488281 -8.0625 22.53125 -8.0625 C 24.457031 -8.0625 26.101562 -8.476562 27.46875 -9.3125 C 28.832031 -10.15625 29.875 -11.367188 30.59375 -12.953125 L 40.390625 -10.15625 C 38.929688 -6.601562 36.625 -3.84375 33.46875 -1.875 C 30.3125 0.09375 26.859375 1.078125 23.109375 1.078125 Z M 10.21875 -16.703125 L 10.21875 -23.96875 L 36 -23.96875 L 36 -16.703125 Z M 10.21875 -16.703125 "/></g></g></g><g fill="#ffffff" fill-opacity="1"><g transform="translate(183.01464, 214.499986)"><g><path d="M 6.046875 0 L 6.046875 -6.15625 L 12.203125 -6.15625 L 12.203125 0 Z M 6.046875 0 "/></g></g></g><g fill="#ffffff" fill-opacity="1"><g transform="translate(201.272455, 214.499986)"><g><path d="M 5.046875 0 L 5.046875 -38.875 L 8.8125 -38.875 L 8.8125 -29.5625 L 7.890625 -30.78125 C 8.316406 -31.882812 8.859375 -32.910156 9.515625 -33.859375 C 10.179688 -34.804688 10.863281 -35.582031 11.5625 -36.1875 C 12.59375 -37.144531 13.800781 -37.867188 15.1875 -38.359375 C 16.582031 -38.847656 17.988281 -39.132812 19.40625 -39.21875 C 20.820312 -39.300781 22.101562 -39.1875 23.25 -38.875 L 23.25 -34.953125 C 21.71875 -35.316406 20.085938 -35.390625 18.359375 -35.171875 C 16.628906 -34.953125 15.007812 -34.207031 13.5 -32.9375 C 12.175781 -31.789062 11.210938 -30.453125 10.609375 -28.921875 C 10.015625 -27.398438 9.632812 -25.804688 9.46875 -24.140625 C 9.300781 -22.472656 9.21875 -20.847656 9.21875 -19.265625 L 9.21875 0 Z M 5.046875 0 "/></g></g></g><g fill="#ffffff" fill-opacity="1"><g transform="translate(226.328503, 214.499986)"><g><path d="M 19.984375 0.90625 C 17.847656 0.90625 15.929688 0.59375 14.234375 -0.03125 C 12.546875 -0.65625 11.078125 -1.535156 9.828125 -2.671875 C 8.578125 -3.816406 7.546875 -5.160156 6.734375 -6.703125 C 5.921875 -8.253906 5.3125 -9.953125 4.90625 -11.796875 C 4.507812 -13.648438 4.3125 -15.585938 4.3125 -17.609375 L 4.3125 -38.875 L 8.5 -38.875 L 8.5 -18.640625 C 8.5 -16.191406 8.742188 -14.007812 9.234375 -12.09375 C 9.722656 -10.175781 10.460938 -8.546875 11.453125 -7.203125 C 12.453125 -5.859375 13.703125 -4.835938 15.203125 -4.140625 C 16.703125 -3.441406 18.472656 -3.09375 20.515625 -3.09375 C 22.628906 -3.09375 24.457031 -3.457031 26 -4.1875 C 27.550781 -4.925781 28.820312 -5.953125 29.8125 -7.265625 C 30.8125 -8.585938 31.554688 -10.15625 32.046875 -11.96875 C 32.546875 -13.78125 32.796875 -15.753906 32.796875 -17.890625 L 36.078125 -17.5 C 36.078125 -13.300781 35.359375 -9.835938 33.921875 -7.109375 C 32.492188 -4.390625 30.566406 -2.375 28.140625 -1.0625 C 25.722656 0.25 23.003906 0.90625 19.984375 0.90625 Z M 33.1875 0 L 33.1875 -8.75 L 32.796875 -8.75 L 32.796875 -38.875 L 36.96875 -38.875 L 36.96875 0 Z M 33.1875 0 "/></g></g></g><g fill="#ffffff" fill-opacity="1"><g transform="translate(268.340585, 214.499986)"><g><path d="M 33.515625 0 L 33.515625 -20.234375 C 33.515625 -22.679688 33.269531 -24.863281 32.78125 -26.78125 C 32.289062 -28.695312 31.546875 -30.328125 30.546875 -31.671875 C 29.546875 -33.023438 28.296875 -34.046875 26.796875 -34.734375 C 25.296875 -35.429688 23.523438 -35.78125 21.484375 -35.78125 C 19.378906 -35.78125 17.550781 -35.414062 16 -34.6875 C 14.457031 -33.957031 13.1875 -32.929688 12.1875 -31.609375 C 11.1875 -30.285156 10.441406 -28.71875 9.953125 -26.90625 C 9.460938 -25.09375 9.21875 -23.117188 9.21875 -20.984375 L 5.9375 -21.390625 C 5.9375 -25.585938 6.648438 -29.046875 8.078125 -31.765625 C 9.503906 -34.492188 11.429688 -36.507812 13.859375 -37.8125 C 16.285156 -39.125 19.007812 -39.78125 22.03125 -39.78125 C 24.164062 -39.78125 26.078125 -39.46875 27.765625 -38.84375 C 29.460938 -38.21875 30.9375 -37.332031 32.1875 -36.1875 C 33.4375 -35.050781 34.46875 -33.707031 35.28125 -32.15625 C 36.09375 -30.613281 36.695312 -28.914062 37.09375 -27.0625 C 37.488281 -25.21875 37.6875 -23.289062 37.6875 -21.28125 L 37.6875 0 Z M 5.046875 0 L 5.046875 -38.875 L 8.8125 -38.875 L 8.8125 -30.125 L 9.21875 -30.125 L 9.21875 0 Z M 5.046875 0 "/></g></g></g></svg>